# xmcd
#
# Track frame offsets:
#	150
#	12803
#	24024
#	36462
#	48506
#	58336
#	66400
#	74891
#	86904
#	94716
#	105669
#	115994
#	126090
#	137050
#	148509
#	160542
#	170461
#	178122
#	186435
#	197700
#
# Disc length: 2722 seconds
# Revision: 3
# Processed by: cddbd v1.5.2PL0 Copyright (c) Steve Scherf et al.
# Submitted via: dBpowerAMP V12.0
#
DISCID=290aa014
DTITLE=Johnny Cash - The Complete Sun Recordings: 1955-1958
DYEAR=2005
DGENRE=Country
TTITLE0=Next In Line
TTITLE1=Don't Make Me Go
TTITLE2=Give My Love To Rose
TTITLE3=Home Of The Blues
TTITLE4=Rock Island Line
TTITLE5=Wreck Of The Old 97
TTITLE6=Country Boy
TTITLE7=Doin' My Time
TTITLE8=If The Good Lord's Willing
TTITLE9=I Heard That Lonesome Whistle Blow
TTITLE10=I Was There When It Happened
TTITLE11=Remember Me (I'm the One Who Loves You) [Includes False Starts]
TTITLE12=Belshazzar
TTITLE13=Big River
TTITLE14=Goodnight Irene
TTITLE15=Ballad Of A Teenage Queen
TTITLE16=Come In Stranger
TTITLE17=Guess Things Happen That Way
TTITLE18=Oh Lonesome Me
TTITLE19=Leave That Junk Alone
EXTD=
EXTT0=
EXTT1=
EXTT2=
EXTT3=
EXTT4=
EXTT5=
EXTT6=
EXTT7=
EXTT8=
EXTT9=
EXTT10=
EXTT11=
EXTT12=
EXTT13=
EXTT14=
EXTT15=
EXTT16=
EXTT17=
EXTT18=
EXTT19=
PLAYORDER=
